<svg width="936" height="686" viewBox="0 0 936 686" fill="none" xmlns="http://www.w3.org/2000/svg">
<rect width="936" height="686" fill="white"/>
<path d="M239.248 207.643C233.892 207.643 229.713 205.607 226.714 201.536C223.714 197.465 222.214 192.162 222.214 185.627C222.214 178.985 223.741 173.655 226.794 169.637C229.847 165.566 234.079 163.531 239.489 163.531C243.185 163.531 246.078 164.388 248.167 166.102C250.31 167.762 251.836 169.61 252.747 171.646H253.39V164.575H263.193V207H253.39V199.206H252.747C251.729 201.402 250.149 203.357 248.006 205.072C245.864 206.786 242.944 207.643 239.248 207.643ZM242.703 199.608C246.185 199.608 248.81 198.242 250.578 195.51C252.399 192.778 253.309 189.457 253.309 185.547C253.309 181.636 252.399 178.342 250.578 175.663C248.81 172.932 246.185 171.566 242.703 171.566C239.114 171.566 236.436 172.932 234.668 175.663C232.954 178.342 232.097 181.636 232.097 185.547C232.097 189.457 232.981 192.778 234.749 195.51C236.516 198.242 239.168 199.608 242.703 199.608ZM289.078 207.643C285.543 207.643 282.49 206.973 279.918 205.634C277.347 204.295 275.392 202.554 274.053 200.411C272.714 198.215 272.044 195.912 272.044 193.501V193.019H281.606V193.501C281.606 195.162 282.275 196.662 283.615 198.001C284.954 199.34 286.855 200.01 289.319 200.01C291.355 200.01 293.016 199.527 294.301 198.563C295.587 197.599 296.23 196.26 296.23 194.546C296.23 193.046 295.667 191.867 294.542 191.01C293.471 190.153 292.132 189.618 290.525 189.403L285.463 188.439C282.195 187.903 279.302 186.698 276.785 184.823C274.321 182.895 273.089 180.029 273.089 176.226C273.089 172.262 274.535 169.155 277.428 166.905C280.32 164.656 284.043 163.531 288.596 163.531C291.917 163.531 294.783 164.147 297.194 165.379C299.658 166.611 301.506 168.218 302.738 170.2C304.023 172.182 304.666 174.324 304.666 176.628V176.949H295.105V176.708C295.105 175.262 294.542 173.896 293.417 172.61C292.346 171.325 290.632 170.682 288.275 170.682C286.293 170.682 284.713 171.191 283.534 172.208C282.356 173.173 281.767 174.458 281.767 176.065C281.767 177.458 282.302 178.583 283.374 179.44C284.498 180.297 285.891 180.886 287.552 181.208L293.096 182.172C296.578 182.868 299.497 184.181 301.854 186.109C304.211 188.037 305.389 190.796 305.389 194.385C305.389 197.01 304.666 199.34 303.22 201.376C301.827 203.357 299.872 204.911 297.354 206.036C294.89 207.107 292.132 207.643 289.078 207.643ZM332.557 154.531C330.843 154.531 329.584 154.88 328.781 155.576C327.977 156.272 327.468 157.103 327.254 158.067C327.093 158.977 327.013 160.21 327.013 161.763V164.575H336.655V172.208H327.013V207H317.291V172.208H311.746V164.575H317.291V159.915C317.291 151.719 321.522 147.621 329.986 147.621C331.218 147.621 332.504 147.702 333.843 147.862C335.235 148.023 336.173 148.211 336.655 148.425V154.853C335.369 154.639 334.003 154.531 332.557 154.531ZM356.948 207.643C351.592 207.643 347.414 205.607 344.414 201.536C341.414 197.465 339.914 192.162 339.914 185.627C339.914 178.985 341.441 173.655 344.494 169.637C347.547 165.566 351.779 163.531 357.189 163.531C360.886 163.531 363.778 164.388 365.867 166.102C368.01 167.762 369.537 169.61 370.447 171.646H371.09V164.575H380.893V207H371.09V199.206H370.447C369.429 201.402 367.849 203.357 365.707 205.072C363.564 206.786 360.644 207.643 356.948 207.643ZM360.403 199.608C363.885 199.608 366.51 198.242 368.278 195.51C370.099 192.778 371.01 189.457 371.01 185.547C371.01 181.636 370.099 178.342 368.278 175.663C366.51 172.932 363.885 171.566 360.403 171.566C356.814 171.566 354.136 172.932 352.368 175.663C350.654 178.342 349.797 181.636 349.797 185.547C349.797 189.457 350.681 192.778 352.449 195.51C354.216 198.242 356.868 199.608 360.403 199.608ZM404.127 207.321C400.431 207.321 397.699 206.759 395.931 205.634C394.164 204.456 393.039 203.009 392.557 201.295C392.128 199.527 391.914 197.278 391.914 194.546V146.737H401.636V192.698C401.636 194.68 401.717 196.153 401.877 197.117C402.091 198.081 402.627 198.858 403.484 199.447C404.341 199.983 405.707 200.251 407.582 200.251C408.278 200.251 409.109 200.197 410.073 200.09V206.839C408.359 207.161 406.377 207.321 404.127 207.321ZM418.593 147.22H428.315V180.565H428.717L442.617 164.575H453.545L437.073 183.859L454.027 207H443.18L428.797 186.511H428.315V207H418.593V147.22ZM474.809 207.643C471.274 207.643 468.221 206.973 465.649 205.634C463.078 204.295 461.123 202.554 459.784 200.411C458.445 198.215 457.775 195.912 457.775 193.501V193.019H467.337V193.501C467.337 195.162 468.006 196.662 469.345 198.001C470.685 199.34 472.586 200.01 475.05 200.01C477.086 200.01 478.746 199.527 480.032 198.563C481.318 197.599 481.96 196.26 481.96 194.546C481.96 193.046 481.398 191.867 480.273 191.01C479.202 190.153 477.863 189.618 476.256 189.403L471.194 188.439C467.926 187.903 465.033 186.698 462.516 184.823C460.052 182.895 458.82 180.029 458.82 176.226C458.82 172.262 460.266 169.155 463.159 166.905C466.051 164.656 469.774 163.531 474.327 163.531C477.648 163.531 480.514 164.147 482.925 165.379C485.389 166.611 487.237 168.218 488.469 170.2C489.754 172.182 490.397 174.324 490.397 176.628V176.949H480.836V176.708C480.836 175.262 480.273 173.896 479.148 172.61C478.077 171.325 476.363 170.682 474.006 170.682C472.024 170.682 470.444 171.191 469.265 172.208C468.087 173.173 467.497 174.458 467.497 176.065C467.497 177.458 468.033 178.583 469.104 179.44C470.229 180.297 471.622 180.886 473.283 181.208L478.827 182.172C482.309 182.868 485.228 184.181 487.585 186.109C489.942 188.037 491.12 190.796 491.12 194.385C491.12 197.01 490.397 199.34 488.951 201.376C487.558 203.357 485.603 204.911 483.085 206.036C480.621 207.107 477.863 207.643 474.809 207.643ZM518.288 154.531C516.574 154.531 515.315 154.88 514.512 155.576C513.708 156.272 513.199 157.103 512.985 158.067C512.824 158.977 512.744 160.21 512.744 161.763V164.575H522.386V172.208H512.744V207H503.022V172.208H497.477V164.575H503.022V159.915C503.022 151.719 507.253 147.621 515.717 147.621C516.949 147.621 518.234 147.702 519.574 147.862C520.966 148.023 521.904 148.211 522.386 148.425V154.853C521.1 154.639 519.734 154.531 518.288 154.531ZM536.511 157.103C534.904 157.103 533.564 156.567 532.493 155.496C531.422 154.371 530.886 153.032 530.886 151.478C530.886 149.925 531.422 148.612 532.493 147.541C533.564 146.416 534.904 145.854 536.511 145.854C538.118 145.854 539.457 146.416 540.528 147.541C541.653 148.612 542.215 149.925 542.215 151.478C542.215 153.032 541.653 154.371 540.528 155.496C539.457 156.567 538.118 157.103 536.511 157.103ZM528.154 224.998C525.851 224.998 523.681 224.731 521.646 224.195V217.446C522.824 217.66 524.03 217.767 525.262 217.767C527.083 217.767 528.422 217.419 529.279 216.722C530.19 216.026 530.752 215.169 530.966 214.151C531.181 213.187 531.288 211.928 531.288 210.375V163.691H541.01V213.107C541.01 216.053 540.18 218.758 538.519 221.222C536.859 223.74 533.404 224.998 528.154 224.998Z" fill="black"/>
<path d="M765.511 446.103C763.904 446.103 762.565 445.567 761.493 444.496C760.422 443.371 759.886 442.032 759.886 440.478C759.886 438.925 760.422 437.612 761.493 436.541C762.565 435.416 763.904 434.854 765.511 434.854C767.118 434.854 768.457 435.416 769.528 436.541C770.653 437.612 771.216 438.925 771.216 440.478C771.216 442.032 770.653 443.371 769.528 444.496C768.457 445.567 767.118 446.103 765.511 446.103ZM757.154 513.998C754.851 513.998 752.682 513.731 750.646 513.195V506.445C751.824 506.66 753.03 506.767 754.262 506.767C756.083 506.767 757.422 506.419 758.279 505.722C759.19 505.026 759.752 504.169 759.967 503.151C760.181 502.187 760.288 500.928 760.288 499.375V452.691H770.01V502.107C770.01 505.053 769.18 507.758 767.52 510.222C765.859 512.74 762.404 513.998 757.154 513.998Z" fill="black"/>
<path d="M747.288 443.531C745.574 443.531 744.315 443.88 743.512 444.576C742.708 445.272 742.199 446.103 741.985 447.067C741.824 447.977 741.744 449.21 741.744 450.763V453.575H751.386V461.208H741.744V496H732.022V461.208H726.478V453.575H732.022V448.915C732.022 440.719 736.253 436.621 744.717 436.621C745.949 436.621 747.235 436.702 748.574 436.862C749.967 437.023 750.904 437.211 751.386 437.425V443.853C750.1 443.639 748.735 443.531 747.288 443.531Z" fill="black"/>
<path d="M703.809 496.643C700.274 496.643 697.22 495.973 694.649 494.634C692.078 493.295 690.123 491.554 688.784 489.411C687.444 487.215 686.775 484.912 686.775 482.501V482.019H696.337V482.501C696.337 484.162 697.006 485.662 698.345 487.001C699.684 488.34 701.586 489.01 704.05 489.01C706.086 489.01 707.746 488.527 709.032 487.563C710.317 486.599 710.96 485.26 710.96 483.546C710.96 482.046 710.398 480.867 709.273 480.01C708.202 479.153 706.862 478.618 705.255 478.403L700.193 477.439C696.926 476.903 694.033 475.698 691.516 473.823C689.051 471.895 687.819 469.029 687.819 465.226C687.819 461.262 689.266 458.155 692.158 455.905C695.051 453.656 698.774 452.531 703.327 452.531C706.648 452.531 709.514 453.147 711.924 454.379C714.389 455.611 716.237 457.218 717.469 459.2C718.754 461.182 719.397 463.324 719.397 465.628V465.949H709.835V465.708C709.835 464.262 709.273 462.896 708.148 461.61C707.077 460.325 705.363 459.682 703.006 459.682C701.024 459.682 699.443 460.191 698.265 461.208C697.086 462.173 696.497 463.458 696.497 465.065C696.497 466.458 697.033 467.583 698.104 468.44C699.229 469.297 700.622 469.886 702.282 470.208L707.827 471.172C711.308 471.868 714.228 473.181 716.585 475.109C718.942 477.037 720.12 479.796 720.12 483.385C720.12 486.01 719.397 488.34 717.951 490.375C716.558 492.357 714.603 493.911 712.085 495.036C709.621 496.107 706.862 496.643 703.809 496.643Z" fill="black"/>
<path d="M586 327H595.722V360.345H596.124L610.025 344.356H620.952L604.481 363.64L621.434 386.78H610.587L596.204 366.291H595.722V386.78H586V327Z" fill="black"/>
<path d="M633.127 496.321C629.431 496.321 626.699 495.759 624.932 494.634C623.164 493.456 622.039 492.009 621.557 490.295C621.128 488.528 620.914 486.278 620.914 483.546V435.738H630.636V481.698C630.636 483.68 630.717 485.153 630.877 486.117C631.092 487.081 631.627 487.858 632.484 488.447C633.342 488.983 634.707 489.251 636.582 489.251C637.279 489.251 638.109 489.197 639.073 489.09V495.839C637.359 496.161 635.377 496.321 633.127 496.321Z" fill="black"/>
<path d="M585.948 496.643C580.592 496.643 576.413 494.607 573.414 490.536C570.414 486.465 568.914 481.162 568.914 474.627C568.914 467.985 570.441 462.655 573.494 458.637C576.547 454.566 580.779 452.531 586.189 452.531C589.885 452.531 592.778 453.388 594.867 455.102C597.01 456.762 598.536 458.61 599.447 460.646H600.09V453.575H609.893V496H600.09V488.206H599.447C598.429 490.402 596.849 492.357 594.706 494.072C592.564 495.786 589.644 496.643 585.948 496.643ZM589.403 488.608C592.885 488.608 595.51 487.242 597.278 484.51C599.099 481.778 600.01 478.457 600.01 474.547C600.01 470.636 599.099 467.342 597.278 464.663C595.51 461.932 592.885 460.566 589.403 460.566C585.814 460.566 583.136 461.932 581.368 464.663C579.654 467.342 578.797 470.636 578.797 474.547C578.797 478.457 579.681 481.778 581.449 484.51C583.216 487.242 585.868 488.608 589.403 488.608Z" fill="black"/>
<path d="M561.557 443.531C559.843 443.531 558.584 443.88 557.781 444.576C556.977 445.272 556.468 446.103 556.254 447.067C556.093 447.977 556.013 449.21 556.013 450.763V453.575H565.655V461.208H556.013V496H546.291V461.208H540.747V453.575H546.291V448.915C546.291 440.719 550.522 436.621 558.986 436.621C560.218 436.621 561.504 436.702 562.843 436.862C564.236 437.023 565.173 437.211 565.655 437.425V443.853C564.369 443.639 563.004 443.531 561.557 443.531Z" fill="black"/>
<path d="M518.078 496.643C514.543 496.643 511.49 495.973 508.918 494.634C506.347 493.295 504.392 491.554 503.053 489.411C501.714 487.215 501.044 484.912 501.044 482.501V482.019H510.606V482.501C510.606 484.162 511.275 485.662 512.615 487.001C513.954 488.34 515.855 489.01 518.319 489.01C520.355 489.01 522.016 488.527 523.301 487.563C524.587 486.599 525.23 485.26 525.23 483.546C525.23 482.046 524.667 480.867 523.542 480.01C522.471 479.153 521.132 478.618 519.525 478.403L514.463 477.439C511.195 476.903 508.302 475.698 505.785 473.823C503.321 471.895 502.089 469.029 502.089 465.226C502.089 461.262 503.535 458.155 506.428 455.905C509.32 453.656 513.043 452.531 517.596 452.531C520.917 452.531 523.783 453.147 526.194 454.379C528.658 455.611 530.506 457.218 531.738 459.2C533.023 461.182 533.666 463.324 533.666 465.628V465.949H524.105V465.708C524.105 464.262 523.542 462.896 522.417 461.61C521.346 460.325 519.632 459.682 517.275 459.682C515.293 459.682 513.713 460.191 512.534 461.208C511.356 462.173 510.767 463.458 510.767 465.065C510.767 466.458 511.302 467.583 512.374 468.44C513.498 469.297 514.891 469.886 516.552 470.208L522.096 471.172C525.578 471.868 528.497 473.181 530.854 475.109C533.211 477.037 534.389 479.796 534.389 483.385C534.389 486.01 533.666 488.34 532.22 490.375C530.827 492.357 528.872 493.911 526.354 495.036C523.89 496.107 521.132 496.643 518.078 496.643Z" fill="black"/>
<path d="M468.248 496.643C462.891 496.643 458.713 494.607 455.713 490.536C452.714 486.465 451.214 481.162 451.214 474.627C451.214 467.985 452.741 462.655 455.794 458.637C458.847 454.566 463.079 452.531 468.489 452.531C472.185 452.531 475.078 453.388 477.167 455.102C479.31 456.762 480.836 458.61 481.747 460.646H482.39V453.575H492.192V496H482.39V488.206H481.747C480.729 490.402 479.149 492.357 477.006 494.072C474.864 495.786 471.944 496.643 468.248 496.643ZM471.703 488.608C475.185 488.608 477.81 487.242 479.577 484.51C481.399 481.778 482.309 478.457 482.309 474.547C482.309 470.636 481.399 467.342 479.577 464.663C477.81 461.932 475.185 460.566 471.703 460.566C468.114 460.566 465.436 461.932 463.668 464.663C461.954 467.342 461.097 470.636 461.097 474.547C461.097 478.457 461.981 481.778 463.748 484.51C465.516 487.242 468.168 488.608 471.703 488.608Z" fill="black"/>
<rect x="133" y="327" width="240" height="184" fill="#780000"/>
<rect x="625" y="223" width="100" height="100" fill="#D9D9D9"/>
</svg>
