<svg width="400" height="400" viewBox="0 0 400 400" fill="none" xmlns="http://www.w3.org/2000/svg">
<g transform="translate(20, 30)">
  <g transform="translate(50, 50)">
    <rect width="100" height="80" rx="8" fill="#5B5FC7"/>
    <rect x="10" y="10" width="80" height="20" rx="4" fill="white" fill-opacity="0.2"/>
  </g>
  <g transform="translate(180, 40)">
    <circle cx="40" cy="40" r="40" fill="#E85D75"/>
    <path d="M25 40L35 50L55 30" stroke="white" stroke-width="3" stroke-linecap="round" stroke-linejoin="round"/>
  </g>
</g>
<g transform="translate(40, 200)">
  <g transform="translate(0, 0)">
    <g transform="scale(1)">
      <rect width="120" height="60" rx="12" fill="#2EA043"/>
      <text x="60" y="35" text-anchor="middle" fill="white" font-size="14" font-family="Inter">Button</text>
    </g>
  </g>
  <g transform="translate(150, 10)">
    <g transform="rotate(15 60 30)">
      <rect width="120" height="60" rx="6" fill="#F5A623" opacity="0.9"/>
      <line x1="10" y1="30" x2="110" y2="30" stroke="white" stroke-width="2"/>
    </g>
  </g>
</g>
<g transform="translate(50, 320)">
  <path d="M0 0C20 -30 60 -30 80 0C100 30 60 50 40 30C20 10 -20 30 0 0Z" fill="#6366F1"/>
  <ellipse cx="200" cy="10" rx="50" ry="25" fill="#818CF8" transform="translate(10, 5)"/>
</g>
</svg>
