<svg width="136" height="16" viewBox="0 0 136 16" fill="none" xmlns="http://www.w3.org/2000/svg">
<path d="M15.2391 3.89407H18.7262L21.6332 9.62665H11.7985L9.82304 5.73129H4.38115L9.09564 15.0634H7.60985L0 0H13.2636L15.2391 3.89407Z" fill="white"/>
<path d="M82.3259 1.60466C83.375 1.60466 84.2484 1.75711 84.9461 2.06202C85.6437 2.36693 86.158 2.77262 86.4887 3.27908C86.8246 3.78554 86.9926 4.34627 86.9926 4.96126C86.9926 5.08012 86.9848 5.20674 86.9693 5.34111H84.6127C84.6076 4.94317 84.5481 4.63051 84.4344 4.40312C84.3259 4.17573 84.1089 4.00518 83.7833 3.89149C83.4577 3.77262 82.9719 3.71319 82.3259 3.71319H81.5972C80.9874 3.71319 80.53 3.75454 80.2251 3.83722C79.9254 3.91991 79.729 4.02844 79.636 4.16281C79.5481 4.29717 79.5042 4.47289 79.5042 4.68994C79.5042 4.85015 79.6153 4.99485 79.8375 5.12405C80.0597 5.25325 80.3647 5.37211 80.7523 5.48064C81.145 5.58917 81.6799 5.71837 82.3569 5.86824L82.6515 5.93026C83.561 6.13181 84.3027 6.33077 84.8763 6.52716C85.4551 6.71837 85.959 7.01812 86.3879 7.42639C86.822 7.82949 87.0391 8.36437 87.0391 9.03104C87.0391 9.6667 86.8711 10.2171 86.5352 10.6822C86.2045 11.1422 85.7083 11.4988 85.0468 11.752C84.3853 12 83.574 12.1241 82.6127 12.1241H81.8918C80.8427 12.1241 79.9693 11.9742 79.2716 11.6745C78.5739 11.3696 78.0572 10.9665 77.7212 10.4652C77.3905 9.9587 77.2251 9.39797 77.2251 8.78298C77.2251 8.65378 77.2329 8.52458 77.2484 8.39538H79.605C79.6101 8.79332 79.667 9.10598 79.7755 9.33337C79.884 9.55559 80.1011 9.72614 80.4267 9.845C80.7574 9.96386 81.2458 10.0233 81.8918 10.0233H82.6127C83.2174 10.0233 83.6722 9.98195 83.9771 9.89926C84.2872 9.81658 84.4861 9.70805 84.574 9.57368C84.667 9.43415 84.7135 9.25585 84.7135 9.03879C84.7135 8.87859 84.6024 8.73647 84.3802 8.61244C84.158 8.48324 83.853 8.36437 83.4654 8.25585C83.0778 8.14732 82.543 8.01812 81.8608 7.86825L81.5662 7.79848C80.6463 7.59693 79.8995 7.40055 79.3259 7.20933C78.7522 7.01812 78.2484 6.72096 77.8143 6.31785C77.3853 5.90958 77.1708 5.36953 77.1708 4.69769C77.1708 4.06203 77.3362 3.51423 77.667 3.05428C78.0029 2.58916 78.5016 2.23257 79.1631 1.9845C79.8246 1.73127 80.636 1.60466 81.5972 1.60466H82.3259Z" fill="white"/>
<path d="M59.039 1.63567C61.1165 1.646 62.6411 2.1473 63.6127 3.13955C64.3 3.85273 64.7031 4.76229 64.822 5.86824H62.2793C62.2276 5.63051 62.1527 5.42121 62.0545 5.24033C61.9563 5.05945 61.8323 4.89149 61.6824 4.73645C61.4085 4.45221 61.0545 4.24291 60.6204 4.10854C60.1914 3.96901 59.6643 3.89924 59.039 3.89924C57.8504 3.89924 56.9382 4.14989 56.3025 4.65118C55.6669 5.15247 55.3491 5.88633 55.3491 6.85274C55.3491 7.81915 55.6643 8.55042 56.2948 9.04655C56.9305 9.5375 57.8478 9.78298 59.0467 9.78298C59.6669 9.78815 60.1914 9.72355 60.6204 9.58918C61.0493 9.45482 61.4033 9.2481 61.6824 8.96903C61.8323 8.81399 61.9563 8.64603 62.0545 8.46515C62.1527 8.28427 62.2276 8.07497 62.2793 7.83724H64.822C64.7031 8.94836 64.3 9.85534 63.6127 10.5582C62.6462 11.5504 61.1217 12.0517 59.039 12.0621C57.7212 12.0466 56.61 11.8373 55.7056 11.4342C54.7547 11.0155 54.0286 10.4161 53.5273 9.6357C53.026 8.85533 52.7754 7.92768 52.7754 6.85274C52.7754 5.74679 53.0286 4.81139 53.5351 4.04653C54.0467 3.26616 54.7702 2.66926 55.7056 2.25582C56.6462 1.84238 57.7573 1.63567 59.039 1.63567Z" fill="white"/>
<path d="M39.8529 4.03102H32.5738V5.85274H39.8529V7.96902H32.5738V11.8605H30.0466V1.82946H39.8529V4.03102Z" fill="white"/>
<path fill-rule="evenodd" clip-rule="evenodd" d="M51.9459 11.8605H49.1785L48.349 10.0388H43.5738L42.7521 11.8605H40.0002L44.7134 1.82946H47.1862L51.9459 11.8605ZM44.5661 7.83724H47.3413L45.9537 4.79072L44.5661 7.83724Z" fill="white"/>
<path d="M76.3414 4.03102H72.3414V11.8605H69.8142V4.03102H65.7987V1.82946H76.3414V4.03102Z" fill="white"/>
<path d="M91.3802 5.85274H96.8686V1.82946H99.3957V11.8605H96.8686V7.96902H91.3802V11.8605H88.8531V1.82946H91.3802V5.85274Z" fill="white"/>
<path d="M111.59 4.03102H104.31V5.85274H111.59V7.96902H104.31V9.65895H111.597V11.8605H101.783V1.82946H111.59V4.03102Z" fill="white"/>
<path d="M123.528 4.03102H116.249V5.85274H123.528V7.96902H116.249V9.65895H123.535V11.8605H113.721V1.82946H123.528V4.03102Z" fill="white"/>
<path d="M135.318 4.03102H131.318V11.8605H128.791V4.03102H124.776V1.82946H135.318V4.03102Z" fill="white"/>
</svg>
