<svg width="332" height="406" viewBox="0 0 332 406" fill="none" xmlns="http://www.w3.org/2000/svg">
<g clip-path="url(#clip0_7441_19649)">
<rect width="331.667" height="406" rx="8" fill="white" fill-opacity="0.02"/>
<path d="M25.876 339.162V327.802H33.252V329.386H26.692L27.604 328.442V333.658L26.692 332.842H32.964V334.378H26.692L27.604 333.562V339.162H25.876ZM38.7516 339.354C37.9303 339.354 37.2156 339.173 36.6076 338.81C36.0103 338.447 35.5463 337.93 35.2156 337.258C34.885 336.586 34.7196 335.802 34.7196 334.906C34.7196 334.01 34.885 333.231 35.2156 332.57C35.5463 331.898 36.005 331.381 36.5916 331.018C37.189 330.645 37.893 330.458 38.7036 330.458C39.4823 330.458 40.165 330.639 40.7516 331.002C41.3383 331.354 41.7916 331.866 42.1116 332.538C42.4423 333.21 42.6076 334.021 42.6076 334.97V335.402H36.4956C36.5383 336.234 36.757 336.858 37.1516 337.274C37.557 337.69 38.0956 337.898 38.7676 337.898C39.2796 337.898 39.6956 337.781 40.0156 337.546C40.3463 337.311 40.581 336.997 40.7196 336.602L42.4796 336.714C42.2556 337.503 41.813 338.143 41.1516 338.634C40.501 339.114 39.701 339.354 38.7516 339.354ZM36.4956 334.122H40.7996C40.7463 333.365 40.5276 332.805 40.1436 332.442C39.7703 332.079 39.2903 331.898 38.7036 331.898C38.1063 331.898 37.6103 332.09 37.2156 332.474C36.8316 332.847 36.5916 333.397 36.4956 334.122ZM46.8973 339.354C46.0226 339.354 45.3186 339.151 44.7853 338.746C44.2519 338.341 43.9853 337.77 43.9853 337.034C43.9853 336.298 44.2039 335.727 44.6413 335.322C45.0893 334.906 45.7773 334.607 46.7053 334.426L49.6333 333.866C49.6333 333.205 49.4786 332.714 49.1693 332.394C48.8706 332.063 48.4173 331.898 47.8093 331.898C47.2653 331.898 46.8333 332.021 46.5133 332.266C46.2039 332.501 45.9959 332.853 45.8893 333.322L44.1293 333.21C44.2893 332.357 44.6893 331.685 45.3293 331.194C45.9693 330.703 46.7959 330.458 47.8093 330.458C48.9613 330.458 49.8359 330.767 50.4333 331.386C51.0306 331.994 51.3293 332.853 51.3293 333.962V337.274C51.3293 337.477 51.3666 337.621 51.4413 337.706C51.5159 337.781 51.6333 337.818 51.7933 337.818H52.0972V339.162C52.0439 339.173 51.9586 339.183 51.8413 339.194C51.7239 339.205 51.6013 339.21 51.4733 339.21C51.0999 339.21 50.7853 339.151 50.5293 339.034C50.2733 338.917 50.0759 338.725 49.9373 338.458C49.8093 338.181 49.7453 337.813 49.7453 337.354L49.9213 337.434C49.8359 337.807 49.6493 338.138 49.3613 338.426C49.0839 338.714 48.7319 338.943 48.3053 339.114C47.8786 339.274 47.4093 339.354 46.8973 339.354ZM47.1853 338.01C47.6866 338.01 48.1186 337.914 48.4813 337.722C48.8546 337.519 49.1373 337.242 49.3293 336.89C49.5319 336.538 49.6333 336.138 49.6333 335.69V335.146L47.1533 335.626C46.6413 335.722 46.2786 335.877 46.0653 336.09C45.8519 336.293 45.7453 336.554 45.7453 336.874C45.7453 337.237 45.8733 337.519 46.1293 337.722C46.3853 337.914 46.7373 338.01 47.1853 338.01ZM56.339 339.162C55.5283 339.162 54.931 338.975 54.547 338.602C54.163 338.229 53.971 337.647 53.971 336.858V328.65H55.667V336.73C55.667 337.125 55.7523 337.397 55.923 337.546C56.0937 337.695 56.355 337.77 56.707 337.77H57.923V339.162H56.339ZM52.675 332.042V330.65H57.923V332.042H52.675ZM62.4688 339.354C61.6154 339.354 60.9328 339.071 60.4208 338.506C59.9194 337.93 59.6688 337.135 59.6688 336.122V330.65H61.3648V335.69C61.3648 336.458 61.4981 337.023 61.7648 337.386C62.0314 337.749 62.4368 337.93 62.9808 337.93C63.5994 337.93 64.0794 337.733 64.4208 337.338C64.7728 336.933 64.9488 336.367 64.9488 335.642V330.65H66.6448V339.162H65.0608L65.0288 336.938L65.2688 337.034C65.1194 337.781 64.8048 338.357 64.3248 338.762C63.8448 339.157 63.2261 339.354 62.4688 339.354ZM69.0438 339.162V330.65H70.5958L70.6598 332.906L70.5158 332.858C70.6331 332.09 70.8678 331.53 71.2198 331.178C71.5824 330.826 72.0678 330.65 72.6758 330.65H73.4918V332.17H72.6758C72.2491 332.17 71.8918 332.239 71.6038 332.378C71.3158 332.517 71.0971 332.73 70.9478 333.018C70.8091 333.306 70.7398 333.679 70.7398 334.138V339.162H69.0438ZM78.4235 339.354C77.6022 339.354 76.8875 339.173 76.2795 338.81C75.6822 338.447 75.2182 337.93 74.8875 337.258C74.5568 336.586 74.3915 335.802 74.3915 334.906C74.3915 334.01 74.5568 333.231 74.8875 332.57C75.2182 331.898 75.6768 331.381 76.2635 331.018C76.8608 330.645 77.5648 330.458 78.3755 330.458C79.1542 330.458 79.8368 330.639 80.4235 331.002C81.0102 331.354 81.4635 331.866 81.7835 332.538C82.1142 333.21 82.2795 334.021 82.2795 334.97V335.402H76.1675C76.2102 336.234 76.4288 336.858 76.8235 337.274C77.2288 337.69 77.7675 337.898 78.4395 337.898C78.9515 337.898 79.3675 337.781 79.6875 337.546C80.0182 337.311 80.2528 336.997 80.3915 336.602L82.1515 336.714C81.9275 337.503 81.4848 338.143 80.8235 338.634C80.1728 339.114 79.3728 339.354 78.4235 339.354ZM76.1675 334.122H80.4715C80.4182 333.365 80.1995 332.805 79.8155 332.442C79.4422 332.079 78.9622 331.898 78.3755 331.898C77.7782 331.898 77.2822 332.09 76.8875 332.474C76.5035 332.847 76.2635 333.397 76.1675 334.122ZM91.339 339.162C90.5283 339.162 89.931 338.975 89.547 338.602C89.163 338.229 88.971 337.647 88.971 336.858V328.65H90.667V336.73C90.667 337.125 90.7523 337.397 90.923 337.546C91.0937 337.695 91.355 337.77 91.707 337.77H92.923V339.162H91.339ZM87.675 332.042V330.65H92.923V332.042H87.675ZM94.6688 339.162V330.65H96.3648V339.162H94.6688ZM94.6368 329.418V327.722H96.4128V329.418H94.6368ZM101.448 339.162C100.638 339.162 100.04 338.975 99.6564 338.602C99.2724 338.229 99.0804 337.647 99.0804 336.858V328.65H100.776V336.73C100.776 337.125 100.862 337.397 101.032 337.546C101.203 337.695 101.464 337.77 101.816 337.77H103.032V339.162H101.448ZM97.7844 332.042V330.65H103.032V332.042H97.7844ZM106.634 339.162C106.079 339.162 105.631 339.018 105.29 338.73C104.949 338.442 104.778 337.983 104.778 337.354V327.802H106.474V337.194C106.474 337.386 106.522 337.53 106.618 337.626C106.725 337.722 106.874 337.77 107.066 337.77H107.738V339.162H106.634ZM112.939 339.354C112.118 339.354 111.403 339.173 110.795 338.81C110.198 338.447 109.734 337.93 109.403 337.258C109.072 336.586 108.907 335.802 108.907 334.906C108.907 334.01 109.072 333.231 109.403 332.57C109.734 331.898 110.192 331.381 110.779 331.018C111.376 330.645 112.08 330.458 112.891 330.458C113.67 330.458 114.352 330.639 114.939 331.002C115.526 331.354 115.979 331.866 116.299 332.538C116.63 333.21 116.795 334.021 116.795 334.97V335.402H110.683C110.726 336.234 110.944 336.858 111.339 337.274C111.744 337.69 112.283 337.898 112.955 337.898C113.467 337.898 113.883 337.781 114.203 337.546C114.534 337.311 114.768 336.997 114.907 336.602L116.667 336.714C116.443 337.503 116 338.143 115.339 338.634C114.688 339.114 113.888 339.354 112.939 339.354ZM110.683 334.122H114.987C114.934 333.365 114.715 332.805 114.331 332.442C113.958 332.079 113.478 331.898 112.891 331.898C112.294 331.898 111.798 332.09 111.403 332.474C111.019 332.847 110.779 333.397 110.683 334.122Z" fill="white"/>
<path opacity="0.6" d="M25.604 361.162V352.642H30.956V353.65H26.12L26.636 353.122V357.034L26.12 356.506H30.74V357.49H26.12L26.636 356.962V361.162H25.604ZM35.0581 361.306C34.4581 361.306 33.9381 361.17 33.4981 360.898C33.0661 360.626 32.7301 360.242 32.4901 359.746C32.2581 359.242 32.1421 358.654 32.1421 357.982C32.1421 357.31 32.2581 356.726 32.4901 356.23C32.7301 355.734 33.0621 355.35 33.4861 355.078C33.9181 354.798 34.4261 354.658 35.0101 354.658C35.5621 354.658 36.0501 354.79 36.4741 355.054C36.8981 355.31 37.2261 355.686 37.4581 356.182C37.6981 356.678 37.8181 357.282 37.8181 357.994V358.294H33.1981C33.2381 358.974 33.4181 359.486 33.7381 359.83C34.0661 360.174 34.5061 360.346 35.0581 360.346C35.4741 360.346 35.8141 360.25 36.0781 360.058C36.3501 359.858 36.5381 359.598 36.6421 359.278L37.7221 359.362C37.5541 359.93 37.2341 360.398 36.7621 360.766C36.2981 361.126 35.7301 361.306 35.0581 361.306ZM33.1981 357.406H36.7141C36.6661 356.79 36.4861 356.338 36.1741 356.05C35.8701 355.762 35.4821 355.618 35.0101 355.618C34.5221 355.618 34.1181 355.77 33.7981 356.074C33.4861 356.37 33.2861 356.814 33.1981 357.406ZM41.0987 361.306C40.4427 361.306 39.9187 361.154 39.5267 360.85C39.1427 360.546 38.9507 360.122 38.9507 359.578C38.9507 359.034 39.1107 358.606 39.4307 358.294C39.7507 357.982 40.2587 357.762 40.9547 357.634L43.2107 357.214C43.2107 356.678 43.0827 356.278 42.8267 356.014C42.5787 355.75 42.2027 355.618 41.6987 355.618C41.2587 355.618 40.9107 355.718 40.6547 355.918C40.3987 356.11 40.2227 356.39 40.1267 356.758L39.0587 356.674C39.1787 356.074 39.4667 355.59 39.9227 355.222C40.3867 354.846 40.9787 354.658 41.6987 354.658C42.5147 354.658 43.1387 354.89 43.5707 355.354C44.0027 355.81 44.2187 356.442 44.2187 357.25V359.878C44.2187 360.022 44.2427 360.126 44.2907 360.19C44.3467 360.246 44.4347 360.274 44.5547 360.274H44.8067V361.162C44.7747 361.17 44.7227 361.174 44.6507 361.174C44.5787 361.182 44.5027 361.186 44.4227 361.186C44.1347 361.186 43.8987 361.142 43.7147 361.054C43.5387 360.958 43.4107 360.814 43.3307 360.622C43.2507 360.422 43.2107 360.162 43.2107 359.842L43.3307 359.866C43.2747 360.138 43.1387 360.386 42.9227 360.61C42.7067 360.826 42.4387 360.998 42.1187 361.126C41.7987 361.246 41.4587 361.306 41.0987 361.306ZM41.1947 360.418C41.6187 360.418 41.9787 360.338 42.2747 360.178C42.5787 360.01 42.8107 359.786 42.9707 359.506C43.1307 359.218 43.2107 358.898 43.2107 358.546V358.09L41.1467 358.474C40.7147 358.554 40.4147 358.678 40.2467 358.846C40.0867 359.006 40.0067 359.218 40.0067 359.482C40.0067 359.778 40.1107 360.01 40.3187 360.178C40.5347 360.338 40.8267 360.418 41.1947 360.418ZM47.9208 361.162C47.3448 361.162 46.9168 361.03 46.6368 360.766C46.3648 360.502 46.2288 360.09 46.2288 359.53V353.314H47.2368V359.506C47.2368 359.794 47.3008 359.994 47.4288 360.106C47.5568 360.218 47.7528 360.274 48.0168 360.274H48.9288V361.162H47.9208ZM45.2928 355.69V354.802H48.9288V355.69H45.2928ZM52.4152 361.306C51.7832 361.306 51.2752 361.094 50.8912 360.67C50.5152 360.238 50.3272 359.646 50.3272 358.894V354.802H51.3352V358.618C51.3352 359.234 51.4432 359.69 51.6592 359.986C51.8832 360.274 52.2232 360.418 52.6792 360.418C53.1832 360.418 53.5792 360.258 53.8672 359.938C54.1552 359.61 54.2992 359.162 54.2992 358.594V354.802H55.3072V361.162H54.3472V359.59L54.5032 359.674C54.3752 360.194 54.1312 360.598 53.7712 360.886C53.4112 361.166 52.9592 361.306 52.4152 361.306ZM57.2295 361.162V354.802H58.1175L58.1655 356.41L58.0695 356.374C58.1495 355.83 58.3215 355.434 58.5855 355.186C58.8575 354.93 59.2175 354.802 59.6655 354.802H60.2895V355.762H59.6775C59.3575 355.762 59.0895 355.822 58.8735 355.942C58.6655 356.054 58.5055 356.226 58.3935 356.458C58.2895 356.682 58.2375 356.97 58.2375 357.322V361.162H57.2295ZM63.9683 361.306C63.3683 361.306 62.8483 361.17 62.4083 360.898C61.9763 360.626 61.6403 360.242 61.4003 359.746C61.1683 359.242 61.0523 358.654 61.0523 357.982C61.0523 357.31 61.1683 356.726 61.4003 356.23C61.6403 355.734 61.9723 355.35 62.3963 355.078C62.8283 354.798 63.3363 354.658 63.9203 354.658C64.4723 354.658 64.9603 354.79 65.3843 355.054C65.8083 355.31 66.1363 355.686 66.3683 356.182C66.6083 356.678 66.7283 357.282 66.7283 357.994V358.294H62.1083C62.1483 358.974 62.3283 359.486 62.6483 359.83C62.9763 360.174 63.4163 360.346 63.9683 360.346C64.3843 360.346 64.7243 360.25 64.9883 360.058C65.2603 359.858 65.4483 359.598 65.5523 359.278L66.6323 359.362C66.4643 359.93 66.1443 360.398 65.6723 360.766C65.2083 361.126 64.6403 361.306 63.9683 361.306ZM62.1083 357.406H65.6243C65.5763 356.79 65.3963 356.338 65.0843 356.05C64.7803 355.762 64.3923 355.618 63.9203 355.618C63.4323 355.618 63.0283 355.77 62.7083 356.074C62.3963 356.37 62.1963 356.814 62.1083 357.406ZM73.5489 361.306C72.9969 361.306 72.5169 361.17 72.1089 360.898C71.7089 360.626 71.4009 360.242 71.1849 359.746C70.9689 359.25 70.8609 358.662 70.8609 357.982C70.8609 357.302 70.9689 356.714 71.1849 356.218C71.4009 355.722 71.7089 355.338 72.1089 355.066C72.5169 354.794 72.9969 354.658 73.5489 354.658C73.9729 354.658 74.3609 354.75 74.7129 354.934C75.0649 355.11 75.3289 355.362 75.5049 355.69V352.642H76.5129V361.162H75.6009L75.5649 360.202C75.3889 360.546 75.1209 360.818 74.7609 361.018C74.4009 361.21 73.9969 361.306 73.5489 361.306ZM73.7529 360.346C74.1289 360.346 74.4449 360.25 74.7009 360.058C74.9649 359.866 75.1649 359.594 75.3009 359.242C75.4369 358.882 75.5049 358.462 75.5049 357.982C75.5049 357.486 75.4369 357.062 75.3009 356.71C75.1649 356.358 74.9649 356.09 74.7009 355.906C74.4449 355.714 74.1289 355.618 73.7529 355.618C73.1929 355.618 72.7449 355.83 72.4089 356.254C72.0809 356.67 71.9169 357.246 71.9169 357.982C71.9169 358.71 72.0809 359.286 72.4089 359.71C72.7449 360.134 73.1929 360.346 73.7529 360.346ZM80.9488 361.306C80.3488 361.306 79.8288 361.17 79.3888 360.898C78.9568 360.626 78.6208 360.242 78.3808 359.746C78.1488 359.242 78.0328 358.654 78.0328 357.982C78.0328 357.31 78.1488 356.726 78.3808 356.23C78.6208 355.734 78.9528 355.35 79.3768 355.078C79.8088 354.798 80.3168 354.658 80.9008 354.658C81.4528 354.658 81.9408 354.79 82.3648 355.054C82.7888 355.31 83.1168 355.686 83.3488 356.182C83.5888 356.678 83.7088 357.282 83.7088 357.994V358.294H79.0888C79.1288 358.974 79.3088 359.486 79.6288 359.83C79.9568 360.174 80.3968 360.346 80.9488 360.346C81.3648 360.346 81.7048 360.25 81.9688 360.058C82.2408 359.858 82.4288 359.598 82.5328 359.278L83.6128 359.362C83.4448 359.93 83.1248 360.398 82.6528 360.766C82.1888 361.126 81.6208 361.306 80.9488 361.306ZM79.0888 357.406H82.6048C82.5568 356.79 82.3768 356.338 82.0648 356.05C81.7608 355.762 81.3728 355.618 80.9008 355.618C80.4128 355.618 80.0088 355.77 79.6888 356.074C79.3768 356.37 79.1768 356.814 79.0888 357.406ZM87.5308 361.306C86.9628 361.306 86.4788 361.214 86.0788 361.03C85.6868 360.846 85.3788 360.594 85.1548 360.274C84.9388 359.946 84.8148 359.574 84.7828 359.158L85.8388 359.086C85.9028 359.47 86.0668 359.778 86.3308 360.01C86.5948 360.234 86.9948 360.346 87.5308 360.346C87.9628 360.346 88.3068 360.278 88.5628 360.142C88.8268 359.998 88.9588 359.77 88.9588 359.458C88.9588 359.29 88.9188 359.15 88.8388 359.038C88.7588 358.926 88.6028 358.83 88.3708 358.75C88.1388 358.662 87.7948 358.578 87.3388 358.498C86.7308 358.386 86.2508 358.25 85.8988 358.09C85.5548 357.922 85.3068 357.718 85.1548 357.478C85.0108 357.23 84.9388 356.938 84.9388 356.602C84.9388 356.034 85.1468 355.57 85.5628 355.21C85.9788 354.842 86.5708 354.658 87.3388 354.658C87.8588 354.658 88.2948 354.754 88.6468 354.946C89.0068 355.13 89.2868 355.378 89.4868 355.69C89.6948 355.994 89.8308 356.33 89.8948 356.698L88.8388 356.77C88.7908 356.546 88.7028 356.35 88.5748 356.182C88.4468 356.006 88.2788 355.87 88.0708 355.774C87.8628 355.67 87.6148 355.618 87.3268 355.618C86.8708 355.618 86.5348 355.706 86.3188 355.882C86.1028 356.058 85.9948 356.282 85.9948 356.554C85.9948 356.762 86.0428 356.934 86.1388 357.07C86.2428 357.198 86.4068 357.306 86.6308 357.394C86.8548 357.474 87.1548 357.546 87.5308 357.61C88.1788 357.722 88.6828 357.858 89.0428 358.018C89.4028 358.178 89.6548 358.374 89.7988 358.606C89.9428 358.838 90.0148 359.122 90.0148 359.458C90.0148 359.85 89.9028 360.186 89.6788 360.466C89.4628 360.738 89.1668 360.946 88.7908 361.09C88.4228 361.234 88.0028 361.306 87.5308 361.306ZM94.0034 361.306C93.4114 361.306 92.8954 361.17 92.4554 360.898C92.0234 360.626 91.6874 360.242 91.4474 359.746C91.2074 359.242 91.0874 358.654 91.0874 357.982C91.0874 357.31 91.2074 356.726 91.4474 356.23C91.6874 355.734 92.0234 355.35 92.4554 355.078C92.8954 354.798 93.4114 354.658 94.0034 354.658C94.4914 354.658 94.9234 354.746 95.2994 354.922C95.6834 355.09 95.9954 355.338 96.2354 355.666C96.4754 355.994 96.6314 356.394 96.7034 356.866L95.6474 356.938C95.5754 356.514 95.3914 356.19 95.0954 355.966C94.7994 355.734 94.4354 355.618 94.0034 355.618C93.4194 355.618 92.9634 355.83 92.6354 356.254C92.3074 356.67 92.1434 357.246 92.1434 357.982C92.1434 358.718 92.3074 359.298 92.6354 359.722C92.9634 360.138 93.4194 360.346 94.0034 360.346C94.4354 360.346 94.7994 360.226 95.0954 359.986C95.3914 359.746 95.5754 359.386 95.6474 358.906L96.7034 358.978C96.6314 359.45 96.4754 359.862 96.2354 360.214C95.9954 360.558 95.6834 360.826 95.2994 361.018C94.9234 361.21 94.4914 361.306 94.0034 361.306ZM98.0459 361.162V354.802H98.9339L98.9819 356.41L98.8859 356.374C98.9659 355.83 99.1379 355.434 99.4019 355.186C99.6739 354.93 100.034 354.802 100.482 354.802H101.106V355.762H100.494C100.174 355.762 99.9059 355.822 99.6899 355.942C99.4819 356.054 99.3219 356.226 99.2099 356.458C99.1059 356.682 99.0539 356.97 99.0539 357.322V361.162H98.0459ZM102.452 361.162V354.802H103.46V361.162H102.452ZM102.428 353.806V352.63H103.484V353.806H102.428ZM105.206 362.962V354.802H106.142L106.166 356.17L106.022 356.098C106.182 355.626 106.446 355.27 106.814 355.03C107.19 354.782 107.622 354.658 108.11 354.658C108.742 354.658 109.258 354.814 109.658 355.126C110.066 355.438 110.366 355.846 110.558 356.35C110.758 356.854 110.858 357.398 110.858 357.982C110.858 358.566 110.758 359.11 110.558 359.614C110.366 360.118 110.066 360.526 109.658 360.838C109.258 361.15 108.742 361.306 108.11 361.306C107.782 361.306 107.474 361.25 107.186 361.138C106.906 361.026 106.666 360.87 106.466 360.67C106.274 360.47 106.142 360.234 106.07 359.962L106.214 359.794V362.962H105.206ZM108.014 360.346C108.566 360.346 109.002 360.138 109.322 359.722C109.642 359.306 109.802 358.726 109.802 357.982C109.802 357.238 109.642 356.658 109.322 356.242C109.002 355.826 108.566 355.618 108.014 355.618C107.646 355.618 107.326 355.706 107.054 355.882C106.79 356.058 106.582 356.322 106.43 356.674C106.286 357.026 106.214 357.462 106.214 357.982C106.214 358.502 106.286 358.938 106.43 359.29C106.574 359.642 106.782 359.906 107.054 360.082C107.326 360.258 107.646 360.346 108.014 360.346ZM114.343 361.162C113.767 361.162 113.339 361.03 113.059 360.766C112.787 360.502 112.651 360.09 112.651 359.53V353.314H113.659V359.506C113.659 359.794 113.723 359.994 113.851 360.106C113.979 360.218 114.175 360.274 114.439 360.274H115.351V361.162H114.343ZM111.715 355.69V354.802H115.351V355.69H111.715ZM116.749 361.162V354.802H117.757V361.162H116.749ZM116.725 353.806V352.63H117.781V353.806H116.725ZM122.199 361.306C121.615 361.306 121.103 361.17 120.663 360.898C120.223 360.626 119.883 360.242 119.643 359.746C119.403 359.242 119.283 358.654 119.283 357.982C119.283 357.302 119.403 356.714 119.643 356.218C119.883 355.722 120.223 355.338 120.663 355.066C121.103 354.794 121.615 354.658 122.199 354.658C122.783 354.658 123.291 354.794 123.723 355.066C124.163 355.338 124.503 355.722 124.743 356.218C124.983 356.714 125.103 357.302 125.103 357.982C125.103 358.654 124.983 359.242 124.743 359.746C124.503 360.242 124.163 360.626 123.723 360.898C123.291 361.17 122.783 361.306 122.199 361.306ZM122.199 360.346C122.783 360.346 123.235 360.138 123.555 359.722C123.883 359.298 124.047 358.718 124.047 357.982C124.047 357.246 123.883 356.67 123.555 356.254C123.235 355.83 122.783 355.618 122.199 355.618C121.615 355.618 121.159 355.83 120.831 356.254C120.503 356.67 120.339 357.246 120.339 357.982C120.339 358.718 120.503 359.298 120.831 359.722C121.159 360.138 121.615 360.346 122.199 360.346ZM126.569 361.162V354.802H127.493L127.529 356.422L127.409 356.314C127.489 355.938 127.629 355.63 127.829 355.39C128.029 355.142 128.269 354.958 128.549 354.838C128.837 354.718 129.145 354.658 129.473 354.658C129.961 354.658 130.361 354.766 130.673 354.982C130.993 355.198 131.229 355.49 131.381 355.858C131.541 356.218 131.621 356.622 131.621 357.07V361.162H130.613V357.358C130.613 356.966 130.565 356.638 130.469 356.374C130.381 356.102 130.237 355.898 130.037 355.762C129.837 355.618 129.577 355.546 129.257 355.546C128.769 355.546 128.365 355.702 128.045 356.014C127.733 356.318 127.577 356.766 127.577 357.358V361.162H126.569ZM138.99 363.106C138.534 363.106 138.122 363.03 137.754 362.878C137.386 362.726 137.078 362.51 136.83 362.23C136.582 361.95 136.414 361.626 136.326 361.258L137.382 361.186C137.478 361.482 137.646 361.714 137.886 361.882C138.134 362.058 138.502 362.146 138.99 362.146C139.566 362.146 140.006 362.03 140.31 361.798C140.622 361.566 140.778 361.218 140.778 360.754V359.722C140.626 360.058 140.382 360.326 140.046 360.526C139.71 360.726 139.334 360.826 138.918 360.826C138.382 360.826 137.902 360.694 137.478 360.43C137.062 360.166 136.734 359.802 136.494 359.338C136.262 358.874 136.146 358.342 136.146 357.742C136.146 357.134 136.262 356.602 136.494 356.146C136.726 355.682 137.046 355.318 137.454 355.054C137.87 354.79 138.342 354.658 138.87 354.658C139.318 354.658 139.718 354.762 140.07 354.97C140.43 355.178 140.682 355.458 140.826 355.81V354.802H141.786V360.73C141.786 361.226 141.674 361.65 141.45 362.002C141.226 362.362 140.906 362.634 140.49 362.818C140.074 363.01 139.574 363.106 138.99 363.106ZM138.966 359.866C139.51 359.866 139.946 359.678 140.274 359.302C140.602 358.918 140.77 358.398 140.778 357.742C140.786 357.302 140.714 356.926 140.562 356.614C140.418 356.294 140.206 356.05 139.926 355.882C139.654 355.706 139.334 355.618 138.966 355.618C138.406 355.618 137.97 355.81 137.658 356.194C137.354 356.57 137.202 357.086 137.202 357.742C137.202 358.398 137.358 358.918 137.67 359.302C137.99 359.678 138.422 359.866 138.966 359.866ZM146.046 361.306C145.462 361.306 144.95 361.17 144.51 360.898C144.07 360.626 143.73 360.242 143.49 359.746C143.25 359.242 143.13 358.654 143.13 357.982C143.13 357.302 143.25 356.714 143.49 356.218C143.73 355.722 144.07 355.338 144.51 355.066C144.95 354.794 145.462 354.658 146.046 354.658C146.63 354.658 147.138 354.794 147.57 355.066C148.01 355.338 148.35 355.722 148.59 356.218C148.83 356.714 148.95 357.302 148.95 357.982C148.95 358.654 148.83 359.242 148.59 359.746C148.35 360.242 148.01 360.626 147.57 360.898C147.138 361.17 146.63 361.306 146.046 361.306ZM146.046 360.346C146.63 360.346 147.082 360.138 147.402 359.722C147.73 359.298 147.894 358.718 147.894 357.982C147.894 357.246 147.73 356.67 147.402 356.254C147.082 355.83 146.63 355.618 146.046 355.618C145.462 355.618 145.006 355.83 144.678 356.254C144.35 356.67 144.186 357.246 144.186 357.982C144.186 358.718 144.35 359.298 144.678 359.722C145.006 360.138 145.462 360.346 146.046 360.346ZM152.937 361.306C152.337 361.306 151.817 361.17 151.377 360.898C150.945 360.626 150.609 360.242 150.369 359.746C150.137 359.242 150.021 358.654 150.021 357.982C150.021 357.31 150.137 356.726 150.369 356.23C150.609 355.734 150.941 355.35 151.365 355.078C151.797 354.798 152.305 354.658 152.889 354.658C153.441 354.658 153.929 354.79 154.353 355.054C154.777 355.31 155.105 355.686 155.337 356.182C155.577 356.678 155.697 357.282 155.697 357.994V358.294H151.077C151.117 358.974 151.297 359.486 151.617 359.83C151.945 360.174 152.385 360.346 152.937 360.346C153.353 360.346 153.693 360.25 153.957 360.058C154.229 359.858 154.417 359.598 154.521 359.278L155.601 359.362C155.433 359.93 155.113 360.398 154.641 360.766C154.177 361.126 153.609 361.306 152.937 361.306ZM151.077 357.406H154.593C154.545 356.79 154.365 356.338 154.053 356.05C153.749 355.762 153.361 355.618 152.889 355.618C152.401 355.618 151.997 355.77 151.677 356.074C151.365 356.37 151.165 356.814 151.077 357.406ZM159.519 361.306C158.951 361.306 158.467 361.214 158.067 361.03C157.675 360.846 157.367 360.594 157.143 360.274C156.927 359.946 156.803 359.574 156.771 359.158L157.827 359.086C157.891 359.47 158.055 359.778 158.319 360.01C158.583 360.234 158.983 360.346 159.519 360.346C159.951 360.346 160.295 360.278 160.551 360.142C160.815 359.998 160.947 359.77 160.947 359.458C160.947 359.29 160.907 359.15 160.827 359.038C160.747 358.926 160.591 358.83 160.359 358.75C160.127 358.662 159.783 358.578 159.327 358.498C158.719 358.386 158.239 358.25 157.887 358.09C157.543 357.922 157.295 357.718 157.143 357.478C156.999 357.23 156.927 356.938 156.927 356.602C156.927 356.034 157.135 355.57 157.551 355.21C157.967 354.842 158.559 354.658 159.327 354.658C159.847 354.658 160.283 354.754 160.635 354.946C160.995 355.13 161.275 355.378 161.475 355.69C161.683 355.994 161.819 356.33 161.883 356.698L160.827 356.77C160.779 356.546 160.691 356.35 160.563 356.182C160.435 356.006 160.267 355.87 160.059 355.774C159.851 355.67 159.603 355.618 159.315 355.618C158.859 355.618 158.523 355.706 158.307 355.882C158.091 356.058 157.983 356.282 157.983 356.554C157.983 356.762 158.031 356.934 158.127 357.07C158.231 357.198 158.395 357.306 158.619 357.394C158.843 357.474 159.143 357.546 159.519 357.61C160.167 357.722 160.671 357.858 161.031 358.018C161.391 358.178 161.643 358.374 161.787 358.606C161.931 358.838 162.003 359.122 162.003 359.458C162.003 359.85 161.891 360.186 161.667 360.466C161.451 360.738 161.155 360.946 160.779 361.09C160.411 361.234 159.991 361.306 159.519 361.306ZM166.53 361.162V352.642H167.538V356.206L167.418 356.182C167.498 355.83 167.634 355.542 167.826 355.318C168.018 355.094 168.254 354.93 168.534 354.826C168.814 354.714 169.122 354.658 169.458 354.658C169.914 354.658 170.298 354.762 170.61 354.97C170.93 355.17 171.17 355.454 171.33 355.822C171.498 356.182 171.582 356.598 171.582 357.07V361.162H170.574V357.358C170.574 356.742 170.462 356.286 170.238 355.99C170.022 355.694 169.69 355.546 169.242 355.546C168.73 355.546 168.318 355.702 168.006 356.014C167.694 356.326 167.538 356.778 167.538 357.37V361.162H166.53ZM175.847 361.306C175.247 361.306 174.727 361.17 174.287 360.898C173.855 360.626 173.519 360.242 173.279 359.746C173.047 359.242 172.931 358.654 172.931 357.982C172.931 357.31 173.047 356.726 173.279 356.23C173.519 355.734 173.851 355.35 174.275 355.078C174.707 354.798 175.215 354.658 175.799 354.658C176.351 354.658 176.839 354.79 177.263 355.054C177.687 355.31 178.015 355.686 178.247 356.182C178.487 356.678 178.607 357.282 178.607 357.994V358.294H173.987C174.027 358.974 174.207 359.486 174.527 359.83C174.855 360.174 175.295 360.346 175.847 360.346C176.263 360.346 176.603 360.25 176.867 360.058C177.139 359.858 177.327 359.598 177.431 359.278L178.511 359.362C178.343 359.93 178.023 360.398 177.551 360.766C177.087 361.126 176.519 361.306 175.847 361.306ZM173.987 357.406H177.503C177.455 356.79 177.275 356.338 176.963 356.05C176.659 355.762 176.271 355.618 175.799 355.618C175.311 355.618 174.907 355.77 174.587 356.074C174.275 356.37 174.075 356.814 173.987 357.406ZM180.077 361.162V354.802H180.965L181.013 356.41L180.917 356.374C180.997 355.83 181.169 355.434 181.433 355.186C181.705 354.93 182.065 354.802 182.513 354.802H183.137V355.762H182.525C182.205 355.762 181.937 355.822 181.721 355.942C181.513 356.054 181.353 356.226 181.241 356.458C181.137 356.682 181.085 356.97 181.085 357.322V361.162H180.077ZM186.816 361.306C186.216 361.306 185.696 361.17 185.256 360.898C184.824 360.626 184.488 360.242 184.248 359.746C184.016 359.242 183.9 358.654 183.9 357.982C183.9 357.31 184.016 356.726 184.248 356.23C184.488 355.734 184.82 355.35 185.244 355.078C185.676 354.798 186.184 354.658 186.768 354.658C187.32 354.658 187.808 354.79 188.232 355.054C188.656 355.31 188.984 355.686 189.216 356.182C189.456 356.678 189.576 357.282 189.576 357.994V358.294H184.956C184.996 358.974 185.176 359.486 185.496 359.83C185.824 360.174 186.264 360.346 186.816 360.346C187.232 360.346 187.572 360.25 187.836 360.058C188.108 359.858 188.296 359.598 188.4 359.278L189.48 359.362C189.312 359.93 188.992 360.398 188.52 360.766C188.056 361.126 187.488 361.306 186.816 361.306ZM184.956 357.406H188.472C188.424 356.79 188.244 356.338 187.932 356.05C187.628 355.762 187.24 355.618 186.768 355.618C186.28 355.618 185.876 355.77 185.556 356.074C185.244 356.37 185.044 356.814 184.956 357.406ZM190.709 361.162V359.806H192.065V361.162H190.709ZM196.733 361.162V352.642H202.085V353.65H197.249L197.765 353.122V357.034L197.249 356.506H201.869V357.49H197.249L197.765 356.962V361.162H196.733ZM206.187 361.306C205.587 361.306 205.067 361.17 204.627 360.898C204.195 360.626 203.859 360.242 203.619 359.746C203.387 359.242 203.271 358.654 203.271 357.982C203.271 357.31 203.387 356.726 203.619 356.23C203.859 355.734 204.191 355.35 204.615 355.078C205.047 354.798 205.555 354.658 206.139 354.658C206.691 354.658 207.179 354.79 207.603 355.054C208.027 355.31 208.355 355.686 208.587 356.182C208.827 356.678 208.947 357.282 208.947 357.994V358.294H204.327C204.367 358.974 204.547 359.486 204.867 359.83C205.195 360.174 205.635 360.346 206.187 360.346C206.603 360.346 206.943 360.25 207.207 360.058C207.479 359.858 207.667 359.598 207.771 359.278L208.851 359.362C208.683 359.93 208.363 360.398 207.891 360.766C207.427 361.126 206.859 361.306 206.187 361.306ZM204.327 357.406H207.843C207.795 356.79 207.615 356.338 207.303 356.05C206.999 355.762 206.611 355.618 206.139 355.618C205.651 355.618 205.247 355.77 204.927 356.074C204.615 356.37 204.415 356.814 204.327 357.406ZM212.228 361.306C211.572 361.306 211.048 361.154 210.656 360.85C210.272 360.546 210.08 360.122 210.08 359.578C210.08 359.034 210.24 358.606 210.56 358.294C210.88 357.982 211.388 357.762 212.084 357.634L214.34 357.214C214.34 356.678 214.212 356.278 213.956 356.014C213.708 355.75 213.332 355.618 212.828 355.618C212.388 355.618 212.04 355.718 211.784 355.918C211.528 356.11 211.352 356.39 211.256 356.758L210.188 356.674C210.308 356.074 210.596 355.59 211.052 355.222C211.516 354.846 212.108 354.658 212.828 354.658C213.644 354.658 214.268 354.89 214.7 355.354C215.132 355.81 215.348 356.442 215.348 357.25V359.878C215.348 360.022 215.372 360.126 215.42 360.19C215.476 360.246 215.564 360.274 215.684 360.274H215.936V361.162C215.904 361.17 215.852 361.174 215.78 361.174C215.708 361.182 215.632 361.186 215.552 361.186C215.264 361.186 215.028 361.142 214.844 361.054C214.668 360.958 214.54 360.814 214.46 360.622C214.38 360.422 214.34 360.162 214.34 359.842L214.46 359.866C214.404 360.138 214.268 360.386 214.052 360.61C213.836 360.826 213.568 360.998 213.248 361.126C212.928 361.246 212.588 361.306 212.228 361.306ZM212.324 360.418C212.748 360.418 213.108 360.338 213.404 360.178C213.708 360.01 213.94 359.786 214.1 359.506C214.26 359.218 214.34 358.898 214.34 358.546V358.09L212.276 358.474C211.844 358.554 211.544 358.678 211.376 358.846C211.216 359.006 211.136 359.218 211.136 359.482C211.136 359.778 211.24 360.01 211.448 360.178C211.664 360.338 211.956 360.418 212.324 360.418ZM219.05 361.162C218.474 361.162 218.046 361.03 217.766 360.766C217.494 360.502 217.358 360.09 217.358 359.53V353.314H218.366V359.506C218.366 359.794 218.43 359.994 218.558 360.106C218.686 360.218 218.882 360.274 219.146 360.274H220.058V361.162H219.05ZM216.422 355.69V354.802H220.058V355.69H216.422ZM223.544 361.306C222.912 361.306 222.404 361.094 222.02 360.67C221.644 360.238 221.456 359.646 221.456 358.894V354.802H222.464V358.618C222.464 359.234 222.572 359.69 222.788 359.986C223.012 360.274 223.352 360.418 223.808 360.418C224.312 360.418 224.708 360.258 224.996 359.938C225.284 359.61 225.428 359.162 225.428 358.594V354.802H226.436V361.162H225.476V359.59L225.632 359.674C225.504 360.194 225.26 360.598 224.9 360.886C224.54 361.166 224.088 361.306 223.544 361.306ZM228.358 361.162V354.802H229.246L229.294 356.41L229.198 356.374C229.278 355.83 229.45 355.434 229.714 355.186C229.986 354.93 230.346 354.802 230.794 354.802H231.418V355.762H230.806C230.486 355.762 230.218 355.822 230.002 355.942C229.794 356.054 229.634 356.226 229.522 356.458C229.418 356.682 229.366 356.97 229.366 357.322V361.162H228.358ZM235.097 361.306C234.497 361.306 233.977 361.17 233.537 360.898C233.105 360.626 232.769 360.242 232.529 359.746C232.297 359.242 232.181 358.654 232.181 357.982C232.181 357.31 232.297 356.726 232.529 356.23C232.769 355.734 233.101 355.35 233.525 355.078C233.957 354.798 234.465 354.658 235.049 354.658C235.601 354.658 236.089 354.79 236.513 355.054C236.937 355.31 237.265 355.686 237.497 356.182C237.737 356.678 237.857 357.282 237.857 357.994V358.294H233.237C233.277 358.974 233.457 359.486 233.777 359.83C234.105 360.174 234.545 360.346 235.097 360.346C235.513 360.346 235.853 360.25 236.117 360.058C236.389 359.858 236.577 359.598 236.681 359.278L237.761 359.362C237.593 359.93 237.273 360.398 236.801 360.766C236.337 361.126 235.769 361.306 235.097 361.306ZM233.237 357.406H236.753C236.705 356.79 236.525 356.338 236.213 356.05C235.909 355.762 235.521 355.618 235.049 355.618C234.561 355.618 234.157 355.77 233.837 356.074C233.525 356.37 233.325 356.814 233.237 357.406ZM244.678 361.306C244.126 361.306 243.646 361.17 243.238 360.898C242.838 360.626 242.53 360.242 242.314 359.746C242.098 359.25 241.99 358.662 241.99 357.982C241.99 357.302 242.098 356.714 242.314 356.218C242.53 355.722 242.838 355.338 243.238 355.066C243.646 354.794 244.126 354.658 244.678 354.658C245.102 354.658 245.49 354.75 245.842 354.934C246.194 355.11 246.458 355.362 246.634 355.69V352.642H247.642V361.162H246.73L246.694 360.202C246.518 360.546 246.25 360.818 245.89 361.018C245.53 361.21 245.126 361.306 244.678 361.306ZM244.882 360.346C245.258 360.346 245.574 360.25 245.83 360.058C246.094 359.866 246.294 359.594 246.43 359.242C246.566 358.882 246.634 358.462 246.634 357.982C246.634 357.486 246.566 357.062 246.43 356.71C246.294 356.358 246.094 356.09 245.83 355.906C245.574 355.714 245.258 355.618 244.882 355.618C244.322 355.618 243.874 355.83 243.538 356.254C243.21 356.67 243.046 357.246 243.046 357.982C243.046 358.71 243.21 359.286 243.538 359.71C243.874 360.134 244.322 360.346 244.882 360.346ZM252.078 361.306C251.478 361.306 250.958 361.17 250.518 360.898C250.086 360.626 249.75 360.242 249.51 359.746C249.278 359.242 249.162 358.654 249.162 357.982C249.162 357.31 249.278 356.726 249.51 356.23C249.75 355.734 250.082 355.35 250.506 355.078C250.938 354.798 251.446 354.658 252.03 354.658C252.582 354.658 253.07 354.79 253.494 355.054C253.918 355.31 254.246 355.686 254.478 356.182C254.718 356.678 254.838 357.282 254.838 357.994V358.294H250.218C250.258 358.974 250.438 359.486 250.758 359.83C251.086 360.174 251.526 360.346 252.078 360.346C252.494 360.346 252.834 360.25 253.098 360.058C253.37 359.858 253.558 359.598 253.662 359.278L254.742 359.362C254.574 359.93 254.254 360.398 253.782 360.766C253.318 361.126 252.75 361.306 252.078 361.306ZM250.218 357.406H253.734C253.686 356.79 253.506 356.338 253.194 356.05C252.89 355.762 252.502 355.618 252.03 355.618C251.542 355.618 251.138 355.77 250.818 356.074C250.506 356.37 250.306 356.814 250.218 357.406ZM258.66 361.306C258.092 361.306 257.608 361.214 257.208 361.03C256.816 360.846 256.508 360.594 256.284 360.274C256.068 359.946 255.944 359.574 255.912 359.158L256.968 359.086C257.032 359.47 257.196 359.778 257.46 360.01C257.724 360.234 258.124 360.346 258.66 360.346C259.092 360.346 259.436 360.278 259.692 360.142C259.956 359.998 260.088 359.77 260.088 359.458C260.088 359.29 260.048 359.15 259.968 359.038C259.888 358.926 259.732 358.83 259.5 358.75C259.268 358.662 258.924 358.578 258.468 358.498C257.86 358.386 257.38 358.25 257.028 358.09C256.684 357.922 256.436 357.718 256.284 357.478C256.14 357.23 256.068 356.938 256.068 356.602C256.068 356.034 256.276 355.57 256.692 355.21C257.108 354.842 257.7 354.658 258.468 354.658C258.988 354.658 259.424 354.754 259.776 354.946C260.136 355.13 260.416 355.378 260.616 355.69C260.824 355.994 260.96 356.33 261.024 356.698L259.968 356.77C259.92 356.546 259.832 356.35 259.704 356.182C259.576 356.006 259.408 355.87 259.2 355.774C258.992 355.67 258.744 355.618 258.456 355.618C258 355.618 257.664 355.706 257.448 355.882C257.232 356.058 257.124 356.282 257.124 356.554C257.124 356.762 257.172 356.934 257.268 357.07C257.372 357.198 257.536 357.306 257.76 357.394C257.984 357.474 258.284 357.546 258.66 357.61C259.308 357.722 259.812 357.858 260.172 358.018C260.532 358.178 260.784 358.374 260.928 358.606C261.072 358.838 261.144 359.122 261.144 359.458C261.144 359.85 261.032 360.186 260.808 360.466C260.592 360.738 260.296 360.946 259.92 361.09C259.552 361.234 259.132 361.306 258.66 361.306ZM265.132 361.306C264.54 361.306 264.024 361.17 263.584 360.898C263.152 360.626 262.816 360.242 262.576 359.746C262.336 359.242 262.216 358.654 262.216 357.982C262.216 357.31 262.336 356.726 262.576 356.23C262.816 355.734 263.152 355.35 263.584 355.078C264.024 354.798 264.54 354.658 265.132 354.658C265.62 354.658 266.052 354.746 266.428 354.922C266.812 355.09 267.124 355.338 267.364 355.666C267.604 355.994 267.76 356.394 267.832 356.866L266.776 356.938C266.704 356.514 266.52 356.19 266.224 355.966C265.928 355.734 265.564 355.618 265.132 355.618C264.548 355.618 264.092 355.83 263.764 356.254C263.436 356.67 263.272 357.246 263.272 357.982C263.272 358.718 263.436 359.298 263.764 359.722C264.092 360.138 264.548 360.346 265.132 360.346C265.564 360.346 265.928 360.226 266.224 359.986C266.52 359.746 266.704 359.386 266.776 358.906L267.832 358.978C267.76 359.45 267.604 359.862 267.364 360.214C267.124 360.558 266.812 360.826 266.428 361.018C266.052 361.21 265.62 361.306 265.132 361.306ZM269.175 361.162V354.802H270.063L270.111 356.41L270.015 356.374C270.095 355.83 270.267 355.434 270.531 355.186C270.803 354.93 271.163 354.802 271.611 354.802H272.235V355.762H271.623C271.303 355.762 271.035 355.822 270.819 355.942C270.611 356.054 270.451 356.226 270.339 356.458C270.235 356.682 270.183 356.97 270.183 357.322V361.162H269.175ZM273.581 361.162V354.802H274.589V361.162H273.581ZM273.557 353.806V352.63H274.613V353.806H273.557ZM276.335 362.962V354.802H277.271L277.295 356.17L277.151 356.098C277.311 355.626 277.575 355.27 277.943 355.03C278.319 354.782 278.751 354.658 279.239 354.658C279.871 354.658 280.387 354.814 280.787 355.126C281.195 355.438 281.495 355.846 281.687 356.35C281.887 356.854 281.987 357.398 281.987 357.982C281.987 358.566 281.887 359.11 281.687 359.614C281.495 360.118 281.195 360.526 280.787 360.838C280.387 361.15 279.871 361.306 279.239 361.306C278.911 361.306 278.603 361.25 278.315 361.138C278.035 361.026 277.795 360.87 277.595 360.67C277.403 360.47 277.271 360.234 277.199 359.962L277.343 359.794V362.962H276.335ZM279.143 360.346C279.695 360.346 280.131 360.138 280.451 359.722C280.771 359.306 280.931 358.726 280.931 357.982C280.931 357.238 280.771 356.658 280.451 356.242C280.131 355.826 279.695 355.618 279.143 355.618C278.775 355.618 278.455 355.706 278.183 355.882C277.919 356.058 277.711 356.322 277.559 356.674C277.415 357.026 277.343 357.462 277.343 357.982C277.343 358.502 277.415 358.938 277.559 359.29C277.703 359.642 277.911 359.906 278.183 360.082C278.455 360.258 278.775 360.346 279.143 360.346ZM285.472 361.162C284.896 361.162 284.468 361.03 284.188 360.766C283.916 360.502 283.78 360.09 283.78 359.53V353.314H284.788V359.506C284.788 359.794 284.852 359.994 284.98 360.106C285.108 360.218 285.304 360.274 285.568 360.274H286.48V361.162H285.472ZM282.844 355.69V354.802H286.48V355.69H282.844ZM287.878 361.162V354.802H288.886V361.162H287.878ZM287.854 353.806V352.63H288.91V353.806H287.854ZM293.328 361.306C292.744 361.306 292.232 361.17 291.792 360.898C291.352 360.626 291.012 360.242 290.772 359.746C290.532 359.242 290.412 358.654 290.412 357.982C290.412 357.302 290.532 356.714 290.772 356.218C291.012 355.722 291.352 355.338 291.792 355.066C292.232 354.794 292.744 354.658 293.328 354.658C293.912 354.658 294.42 354.794 294.852 355.066C295.292 355.338 295.632 355.722 295.872 356.218C296.112 356.714 296.232 357.302 296.232 357.982C296.232 358.654 296.112 359.242 295.872 359.746C295.632 360.242 295.292 360.626 294.852 360.898C294.42 361.17 293.912 361.306 293.328 361.306ZM293.328 360.346C293.912 360.346 294.364 360.138 294.684 359.722C295.012 359.298 295.176 358.718 295.176 357.982C295.176 357.246 295.012 356.67 294.684 356.254C294.364 355.83 293.912 355.618 293.328 355.618C292.744 355.618 292.288 355.83 291.96 356.254C291.632 356.67 291.468 357.246 291.468 357.982C291.468 358.718 291.632 359.298 291.96 359.722C292.288 360.138 292.744 360.346 293.328 360.346ZM297.698 361.162V354.802H298.622L298.658 356.422L298.538 356.314C298.618 355.938 298.758 355.63 298.958 355.39C299.158 355.142 299.398 354.958 299.678 354.838C299.966 354.718 300.274 354.658 300.602 354.658C301.09 354.658 301.49 354.766 301.802 354.982C302.122 355.198 302.358 355.49 302.51 355.858C302.67 356.218 302.75 356.622 302.75 357.07V361.162H301.742V357.358C301.742 356.966 301.694 356.638 301.598 356.374C301.51 356.102 301.366 355.898 301.166 355.762C300.966 355.618 300.706 355.546 300.386 355.546C299.898 355.546 299.494 355.702 299.174 356.014C298.862 356.318 298.706 356.766 298.706 357.358V361.162H297.698ZM27.908 380.106C27.452 380.106 27.04 380.03 26.672 379.878C26.304 379.726 25.996 379.51 25.748 379.23C25.5 378.95 25.332 378.626 25.244 378.258L26.3 378.186C26.396 378.482 26.564 378.714 26.804 378.882C27.052 379.058 27.42 379.146 27.908 379.146C28.484 379.146 28.924 379.03 29.228 378.798C29.54 378.566 29.696 378.218 29.696 377.754V376.722C29.544 377.058 29.3 377.326 28.964 377.526C28.628 377.726 28.252 377.826 27.836 377.826C27.3 377.826 26.82 377.694 26.396 377.43C25.98 377.166 25.652 376.802 25.412 376.338C25.18 375.874 25.064 375.342 25.064 374.742C25.064 374.134 25.18 373.602 25.412 373.146C25.644 372.682 25.964 372.318 26.372 372.054C26.788 371.79 27.26 371.658 27.788 371.658C28.236 371.658 28.636 371.762 28.988 371.97C29.348 372.178 29.6 372.458 29.744 372.81V371.802H30.704V377.73C30.704 378.226 30.592 378.65 30.368 379.002C30.144 379.362 29.824 379.634 29.408 379.818C28.992 380.01 28.492 380.106 27.908 380.106ZM27.884 376.866C28.428 376.866 28.864 376.678 29.192 376.302C29.52 375.918 29.688 375.398 29.696 374.742C29.704 374.302 29.632 373.926 29.48 373.614C29.336 373.294 29.124 373.05 28.844 372.882C28.572 372.706 28.252 372.618 27.884 372.618C27.324 372.618 26.888 372.81 26.576 373.194C26.272 373.57 26.12 374.086 26.12 374.742C26.12 375.398 26.276 375.918 26.588 376.302C26.908 376.678 27.34 376.866 27.884 376.866ZM34.9644 378.306C34.3804 378.306 33.8684 378.17 33.4284 377.898C32.9884 377.626 32.6484 377.242 32.4084 376.746C32.1684 376.242 32.0484 375.654 32.0484 374.982C32.0484 374.302 32.1684 373.714 32.4084 373.218C32.6484 372.722 32.9884 372.338 33.4284 372.066C33.8684 371.794 34.3804 371.658 34.9644 371.658C35.5484 371.658 36.0564 371.794 36.4884 372.066C36.9284 372.338 37.2684 372.722 37.5084 373.218C37.7484 373.714 37.8684 374.302 37.8684 374.982C37.8684 375.654 37.7484 376.242 37.5084 376.746C37.2684 377.242 36.9284 377.626 36.4884 377.898C36.0564 378.17 35.5484 378.306 34.9644 378.306ZM34.9644 377.346C35.5484 377.346 36.0004 377.138 36.3204 376.722C36.6484 376.298 36.8124 375.718 36.8124 374.982C36.8124 374.246 36.6484 373.67 36.3204 373.254C36.0004 372.83 35.5484 372.618 34.9644 372.618C34.3804 372.618 33.9244 372.83 33.5964 373.254C33.2684 373.67 33.1044 374.246 33.1044 374.982C33.1044 375.718 33.2684 376.298 33.5964 376.722C33.9244 377.138 34.3804 377.346 34.9644 377.346ZM41.855 378.306C41.255 378.306 40.735 378.17 40.295 377.898C39.863 377.626 39.527 377.242 39.287 376.746C39.055 376.242 38.939 375.654 38.939 374.982C38.939 374.31 39.055 373.726 39.287 373.23C39.527 372.734 39.859 372.35 40.283 372.078C40.715 371.798 41.223 371.658 41.807 371.658C42.359 371.658 42.847 371.79 43.271 372.054C43.695 372.31 44.023 372.686 44.255 373.182C44.495 373.678 44.615 374.282 44.615 374.994V375.294H39.995C40.035 375.974 40.215 376.486 40.535 376.83C40.863 377.174 41.303 377.346 41.855 377.346C42.271 377.346 42.611 377.25 42.875 377.058C43.147 376.858 43.335 376.598 43.439 376.278L44.519 376.362C44.351 376.93 44.031 377.398 43.559 377.766C43.095 378.126 42.527 378.306 41.855 378.306ZM39.995 374.406H43.511C43.463 373.79 43.283 373.338 42.971 373.05C42.667 372.762 42.279 372.618 41.807 372.618C41.319 372.618 40.915 372.77 40.595 373.074C40.283 373.37 40.083 373.814 39.995 374.406ZM48.437 378.306C47.869 378.306 47.385 378.214 46.985 378.03C46.593 377.846 46.285 377.594 46.061 377.274C45.845 376.946 45.721 376.574 45.689 376.158L46.745 376.086C46.809 376.47 46.973 376.778 47.237 377.01C47.501 377.234 47.901 377.346 48.437 377.346C48.869 377.346 49.213 377.278 49.469 377.142C49.733 376.998 49.865 376.77 49.865 376.458C49.865 376.29 49.825 376.15 49.745 376.038C49.665 375.926 49.509 375.83 49.277 375.75C49.045 375.662 48.701 375.578 48.245 375.498C47.637 375.386 47.157 375.25 46.805 375.09C46.461 374.922 46.213 374.718 46.061 374.478C45.917 374.23 45.845 373.938 45.845 373.602C45.845 373.034 46.053 372.57 46.469 372.21C46.885 371.842 47.477 371.658 48.245 371.658C48.765 371.658 49.201 371.754 49.553 371.946C49.913 372.13 50.193 372.378 50.393 372.69C50.601 372.994 50.737 373.33 50.801 373.698L49.745 373.77C49.697 373.546 49.609 373.35 49.481 373.182C49.353 373.006 49.185 372.87 48.977 372.774C48.769 372.67 48.521 372.618 48.233 372.618C47.777 372.618 47.441 372.706 47.225 372.882C47.009 373.058 46.901 373.282 46.901 373.554C46.901 373.762 46.949 373.934 47.045 374.07C47.149 374.198 47.313 374.306 47.537 374.394C47.761 374.474 48.061 374.546 48.437 374.61C49.085 374.722 49.589 374.858 49.949 375.018C50.309 375.178 50.561 375.374 50.705 375.606C50.849 375.838 50.921 376.122 50.921 376.458C50.921 376.85 50.809 377.186 50.585 377.466C50.369 377.738 50.073 377.946 49.697 378.09C49.329 378.234 48.909 378.306 48.437 378.306ZM55.4483 378.162V369.642H56.4563V373.206L56.3363 373.182C56.4163 372.83 56.5523 372.542 56.7443 372.318C56.9363 372.094 57.1723 371.93 57.4523 371.826C57.7323 371.714 58.0403 371.658 58.3763 371.658C58.8323 371.658 59.2163 371.762 59.5283 371.97C59.8483 372.17 60.0883 372.454 60.2483 372.822C60.4163 373.182 60.5003 373.598 60.5003 374.07V378.162H59.4923V374.358C59.4923 373.742 59.3803 373.286 59.1563 372.99C58.9403 372.694 58.6083 372.546 58.1603 372.546C57.6483 372.546 57.2363 372.702 56.9243 373.014C56.6123 373.326 56.4563 373.778 56.4563 374.37V378.162H55.4483ZM64.7652 378.306C64.1652 378.306 63.6452 378.17 63.2052 377.898C62.7732 377.626 62.4372 377.242 62.1972 376.746C61.9652 376.242 61.8492 375.654 61.8492 374.982C61.8492 374.31 61.9652 373.726 62.1972 373.23C62.4372 372.734 62.7692 372.35 63.1932 372.078C63.6252 371.798 64.1332 371.658 64.7172 371.658C65.2692 371.658 65.7572 371.79 66.1812 372.054C66.6052 372.31 66.9332 372.686 67.1652 373.182C67.4052 373.678 67.5252 374.282 67.5252 374.994V375.294H62.9052C62.9452 375.974 63.1252 376.486 63.4452 376.83C63.7732 377.174 64.2132 377.346 64.7652 377.346C65.1812 377.346 65.5212 377.25 65.7852 377.058C66.0572 376.858 66.2452 376.598 66.3492 376.278L67.4292 376.362C67.2612 376.93 66.9412 377.398 66.4692 377.766C66.0052 378.126 65.4372 378.306 64.7652 378.306ZM62.9052 374.406H66.4212C66.3732 373.79 66.1932 373.338 65.8812 373.05C65.5772 372.762 65.1892 372.618 64.7172 372.618C64.2292 372.618 63.8252 372.77 63.5052 373.074C63.1932 373.37 62.9932 373.814 62.9052 374.406ZM68.9952 378.162V371.802H69.8832L69.9312 373.41L69.8352 373.374C69.9152 372.83 70.0872 372.434 70.3512 372.186C70.6232 371.93 70.9832 371.802 71.4312 371.802H72.0552V372.762H71.4432C71.1232 372.762 70.8552 372.822 70.6392 372.942C70.4312 373.054 70.2712 373.226 70.1592 373.458C70.0552 373.682 70.0032 373.97 70.0032 374.322V378.162H68.9952ZM75.7339 378.306C75.1339 378.306 74.6139 378.17 74.1739 377.898C73.7419 377.626 73.4059 377.242 73.1659 376.746C72.9339 376.242 72.8179 375.654 72.8179 374.982C72.8179 374.31 72.9339 373.726 73.1659 373.23C73.4059 372.734 73.7379 372.35 74.1619 372.078C74.5939 371.798 75.1019 371.658 75.6859 371.658C76.2379 371.658 76.7259 371.79 77.1499 372.054C77.5739 372.31 77.9019 372.686 78.1339 373.182C78.3739 373.678 78.4939 374.282 78.4939 374.994V375.294H73.8739C73.9139 375.974 74.0939 376.486 74.4139 376.83C74.7419 377.174 75.1819 377.346 75.7339 377.346C76.1499 377.346 76.4899 377.25 76.7539 377.058C77.0259 376.858 77.2139 376.598 77.3179 376.278L78.3979 376.362C78.2299 376.93 77.9099 377.398 77.4379 377.766C76.9739 378.126 76.4059 378.306 75.7339 378.306ZM73.8739 374.406H77.3899C77.3419 373.79 77.1619 373.338 76.8499 373.05C76.5459 372.762 76.1579 372.618 75.6859 372.618C75.1979 372.618 74.7939 372.77 74.4739 373.074C74.1619 373.37 73.9619 373.814 73.8739 374.406ZM79.6265 378.162V376.806H80.9825V378.162H79.6265Z" fill="white"/>
</g>
<rect x="0.5" y="0.5" width="330.667" height="405" rx="7.5" stroke="white" stroke-opacity="0.1"/>
<defs>
<clipPath id="clip0_7441_19649">
<rect width="331.667" height="406" rx="8" fill="white"/>
</clipPath>
</defs>
</svg>
